<svg width="47" height="47" viewBox="0 0 47 47" fill="none" xmlns="http://www.w3.org/2000/svg">
<g filter="url(#filter0_d_71_2681)">
<rect x="4" width="39" height="39" rx="19.5" fill="white" fill-opacity="0.3" shape-rendering="crispEdges"/>
<path d="M32.6106 9.29297C27.0571 13.5702 22.4349 18.8822 19.1235 25.0221C17.8817 23.7459 16.502 22.6076 15.0187 21.5728C12.8456 20.055 10.7415 23.6424 12.9146 25.1601C14.9153 26.5399 16.6399 28.2646 18.1232 30.1962C18.9165 31.1965 20.8482 30.8861 21.3656 29.7823C24.4011 23.194 28.9197 17.3645 34.7147 12.9493C35.6115 12.2594 36.06 11.1901 35.4736 10.1208C34.9562 9.155 33.5074 8.63759 32.6106 9.29297Z" fill="white"/>
</g>
<defs>
<filter id="filter0_d_71_2681" x="0" y="0" width="47" height="47" filterUnits="userSpaceOnUse" color-interpolation-filters="sRGB">
<feFlood flood-opacity="0" result="BackgroundImageFix"/>
<feColorMatrix in="SourceAlpha" type="matrix" values="0 0 0 0 0 0 0 0 0 0 0 0 0 0 0 0 0 0 127 0" result="hardAlpha"/>
<feOffset dy="4"/>
<feGaussianBlur stdDeviation="2"/>
<feComposite in2="hardAlpha" operator="out"/>
<feColorMatrix type="matrix" values="0 0 0 0 0.305 0 0 0 0 0.244442 0 0 0 0 0.0297375 0 0 0 0.15 0"/>
<feBlend mode="normal" in2="BackgroundImageFix" result="effect1_dropShadow_71_2681"/>
<feBlend mode="normal" in="SourceGraphic" in2="effect1_dropShadow_71_2681" result="shape"/>
</filter>
</defs>
</svg>
