<svg width="30" height="30" viewBox="0 0 30 30" fill="none" xmlns="http://www.w3.org/2000/svg">
<circle cx="15" cy="15" r="15" fill="white"/>
<path d="M15.0005 11.7903C13.0652 11.7903 11.4858 13.4574 11.4858 15.5003C11.4858 17.5431 13.0652 19.2103 15.0005 19.2103C16.9359 19.2103 18.5153 17.5431 18.5153 15.5003C18.5153 13.4574 16.9359 11.7903 15.0005 11.7903ZM25.5421 15.5003C25.5421 13.9639 25.5553 12.4415 25.4736 10.908C25.3918 9.12675 25.0069 7.54589 23.7729 6.24335C22.5363 4.93803 21.0412 4.53447 19.3537 4.44819C17.8983 4.36191 16.456 4.37583 15.0032 4.37583C13.5477 4.37583 12.1054 4.36191 10.6526 4.44819C8.96509 4.53447 7.46744 4.94082 6.23346 6.24335C4.99684 7.54867 4.61452 9.12675 4.53278 10.908C4.45104 12.4443 4.46422 13.9667 4.46422 15.5003C4.46422 17.0338 4.45104 18.559 4.53278 20.0925C4.61452 21.8738 4.99948 23.4546 6.23346 24.7572C7.47008 26.0625 8.96509 26.4661 10.6526 26.5523C12.1081 26.6386 13.5503 26.6247 15.0032 26.6247C16.4586 26.6247 17.9009 26.6386 19.3537 26.5523C21.0412 26.4661 22.5389 26.0597 23.7729 24.7572C25.0095 23.4519 25.3918 21.8738 25.4736 20.0925C25.5579 18.559 25.5421 17.0366 25.5421 15.5003ZM15.0005 21.2086C12.0079 21.2086 9.59263 18.6592 9.59263 15.5003C9.59263 12.3413 12.0079 9.79193 15.0005 9.79193C17.9932 9.79193 20.4084 12.3413 20.4084 15.5003C20.4084 18.6592 17.9932 21.2086 15.0005 21.2086ZM20.6299 10.8913C19.9312 10.8913 19.3669 10.2957 19.3669 9.55814C19.3669 8.82059 19.9312 8.22499 20.6299 8.22499C21.3286 8.22499 21.8929 8.82059 21.8929 9.55814C21.8931 9.73327 21.8606 9.90673 21.7972 10.0686C21.7338 10.2304 21.6408 10.3775 21.5234 10.5013C21.4061 10.6251 21.2668 10.7233 21.1135 10.7903C20.9602 10.8572 20.7958 10.8915 20.6299 10.8913Z" fill="#0A2D73"/>
</svg>
