<svg width="30" height="30" viewBox="0 0 30 30" fill="none" xmlns="http://www.w3.org/2000/svg">
<rect width="30" height="30" rx="6" fill="white"/>
<circle cx="15" cy="15" r="15" fill="white"/>
<path d="M18.8199 11.2983C20.2885 12.3473 22.0869 12.9645 24.0294 12.9645V10.0235C22.9451 9.79262 21.9852 9.22628 21.2635 8.43854C20.0281 7.66805 19.1381 6.39694 18.8771 4.90918H16.1538V19.8325C16.1477 21.5722 14.7351 22.9809 12.9931 22.9809C11.9665 22.9809 11.0545 22.4919 10.477 21.7342C9.44559 21.2139 8.73832 20.1458 8.73832 18.9123C8.73832 17.1677 10.1533 15.7532 11.899 15.7532C12.2335 15.7532 12.5559 15.8053 12.8583 15.9012V12.928C9.10932 13.0055 6.09424 16.0671 6.09424 19.8326C6.09424 21.7122 6.84506 23.4162 8.06366 24.6613C9.16301 25.3991 10.4864 25.8294 11.9103 25.8294C15.7263 25.8294 18.8199 22.7374 18.8199 18.9232V11.2983H18.8199Z" fill="#0A2D73"/>
<path d="M24.0292 10.0238V9.22861C23.0514 9.23009 22.0928 8.95641 21.2633 8.43885C21.9976 9.24242 22.9646 9.79651 24.0292 10.0238ZM18.8769 4.90956C18.852 4.76737 18.8328 4.62424 18.8196 4.48057V4H15.0595V18.9235C15.0534 20.663 13.6409 22.0717 11.8987 22.0717C11.3873 22.0717 10.9044 21.9503 10.4767 21.7347C11.0543 22.4922 11.9663 22.9812 12.9928 22.9812C14.7346 22.9812 16.1475 21.5727 16.1536 19.8329V4.90956H18.8769ZM12.8582 12.9284V12.0818C12.544 12.0389 12.2272 12.0174 11.9101 12.0175C8.09367 12.0175 5 15.1095 5 18.9235C5 21.3146 6.21587 23.4219 8.06347 24.6615C6.84487 23.4165 6.09404 21.7125 6.09404 19.8329C6.09404 16.0675 9.10905 13.0058 12.8582 12.9284Z" fill="#0A2D73"/>
</svg>
